{
	"asset":{
		"generator":"Khronos glTF Blender I/O v4.4.56",
		"version":"2.0"
	},
	"scene":0,
	"scenes":[
		{
			"name":"Scene",
			"nodes":[
				0
			]
		}
	],
	"nodes":[
		{
			"mesh":0,
			"name":"Room",
			"rotation":[
				0,
				-0.7071068286895752,
				0,
				0.7071068286895752
			],
			"scale":[
				5.22129487991333,
				1.829548716545105,
				0.03809535503387451
			]
		}
	],
	"materials":[
		{
			"doubleSided":true,
			"name":"Material.001",
			"pbrMetallicRoughness":{
				"baseColorTexture":{
					"index":0
				},
				"metallicFactor":0,
				"roughnessFactor":0.5
			}
		}
	],
	"meshes":[
		{
			"name":"Cube.031",
			"primitives":[
				{
					"attributes":{
						"POSITION":0,
						"NORMAL":1,
						"TEXCOORD_0":2
					},
					"indices":3,
					"material":0
				}
			]
		}
	],
	"textures":[
		{
			"sampler":0,
			"source":0
		}
	],
	"images":[
		{
			"bufferView":4,
			"mimeType":"image/png",
			"name":"Atlas"
		}
	],
	"accessors":[
		{
			"bufferView":0,
			"componentType":5126,
			"count":24884,
			"max":[
				1.0281548500061035,
				2.0063657760620117,
				141.2606658935547
			],
			"min":[
				-1.0185303688049316,
				-0.03870820999145508,
				-138.11253356933594
			],
			"type":"VEC3"
		},
		{
			"bufferView":1,
			"componentType":5126,
			"count":24884,
			"type":"VEC3"
		},
		{
			"bufferView":2,
			"componentType":5126,
			"count":24884,
			"type":"VEC2"
		},
		{
			"bufferView":3,
			"componentType":5123,
			"count":52896,
			"type":"SCALAR"
		}
	],
	"bufferViews":[
		{
			"buffer":0,
			"byteLength":298608,
			"byteOffset":0,
			"target":34962
		},
		{
			"buffer":0,
			"byteLength":298608,
			"byteOffset":298608,
			"target":34962
		},
		{
			"buffer":0,
			"byteLength":199072,
			"byteOffset":597216,
			"target":34962
		},
		{
			"buffer":0,
			"byteLength":105792,
			"byteOffset":796288,
			"target":34963
		},
		{
			"buffer":0,
			"byteLength":2032611,
			"byteOffset":902080
		}
	],
	"samplers":[
		{
			"magFilter":9729,
			"minFilter":9987
		}
	],
	"buffers":[
		{
			"byteLength":2934692,
			"uri":"data:application/octet-stream;base64,"
		}
	]
}
